<svg width="254" height="120" viewBox="0 0 254 120" fill="none" xmlns="http://www.w3.org/2000/svg">
<path d="M134.018 83.5447L126.712 72.5594L120.274 83.5447H110.362L121.858 65.304L110.106 47.6764H120.274L127.478 58.5084L133.814 47.6764H143.726L132.332 65.7638L144.186 83.5447H134.018ZM170.287 65.1507C172.365 65.5935 174.034 66.6324 175.295 68.2674C176.555 69.8684 177.185 71.7078 177.185 73.7856C177.185 76.7832 176.129 79.1676 174.017 80.9389C171.939 82.6761 169.027 83.5447 165.28 83.5447H148.572V47.6764H164.718C168.363 47.6764 171.207 48.5109 173.251 50.18C175.329 51.8491 176.368 54.1143 176.368 56.9756C176.368 59.0875 175.806 60.8417 174.681 62.2383C173.591 63.6349 172.127 64.6057 170.287 65.1507ZM157.309 62.1872H163.032C164.463 62.1872 165.553 61.8806 166.302 61.2675C167.085 60.6203 167.477 59.6836 167.477 58.4573C167.477 57.231 167.085 56.2943 166.302 55.6471C165.553 54.9999 164.463 54.6763 163.032 54.6763H157.309V62.1872ZM163.747 76.4936C165.212 76.4936 166.336 76.17 167.12 75.5229C167.937 74.8416 168.346 73.8708 168.346 72.6105C168.346 71.3501 167.92 70.3623 167.068 69.647C166.251 68.9317 165.11 68.574 163.645 68.574H157.309V76.4936H163.747ZM190.99 54.6763V61.9317H202.69V68.6762H190.99V76.5447H204.223V83.5447H182.253V47.6764H204.223V54.6763H190.99ZM228.187 83.5447L220.728 70.0047H218.633V83.5447H209.896V47.6764H224.56C227.387 47.6764 229.788 48.1703 231.764 49.1581C233.774 50.146 235.272 51.5085 236.26 53.2457C237.248 54.9488 237.742 56.8564 237.742 58.9683C237.742 61.3527 237.061 63.4816 235.698 65.3551C234.37 67.2285 232.394 68.557 229.771 69.3404L238.049 83.5447H228.187ZM218.633 63.8222H224.049C225.65 63.8222 226.842 63.4305 227.625 62.6471C228.443 61.8636 228.852 60.7566 228.852 59.3259C228.852 57.9634 228.443 56.8904 227.625 56.107C226.842 55.3235 225.65 54.9318 224.049 54.9318H218.633V63.8222Z" fill="#FF5F2E"/>
<path d="M32.0224 26.595H13.3427L37.8931 62.0864L13.3427 94.3755H32.0224L55.7723 62.0864L32.0224 26.595Z" fill="#FF5F2E"/>
<path d="M43.1438 3.64563H24.0168L60.385 62.0486L24.0168 115.724H43.1438L80.5896 62.0486L43.1438 3.64563Z" fill="#FF0000"/>
<path d="M80.8564 24.9939H98.7355L79.5221 53.814L70.9829 40.7895L80.8564 24.9939Z" fill="#FF5F2E"/>
<path d="M84.4291 97.5778H101.404L80.9264 68.7577L73.6514 80.3966L84.4291 97.5778Z" fill="#FF5F2E"/>
</svg>
